<?xml version="1.0" encoding="UTF-8" standalone="no"?>
<svg
   version="1.1"
   id="Icons"
   x="0px"
   y="0px"
   viewBox="0 0 32 32"
   style="enable-background:new 0 0 32 32;"
   xml:space="preserve"
   sodipodi:docname="loop1.svg"
   inkscape:export-filename="loop2.svg"
   inkscape:export-xdpi="166.87474"
   inkscape:export-ydpi="166.87474"
   inkscape:version="1.2.2 (b0a8486541, 2022-12-01)"
   xmlns:inkscape="http://www.inkscape.org/namespaces/inkscape"
   xmlns:sodipodi="http://sodipodi.sourceforge.net/DTD/sodipodi-0.dtd"
   xmlns="http://www.w3.org/2000/svg"
   xmlns:svg="http://www.w3.org/2000/svg"><defs
   id="defs7" /><sodipodi:namedview
   id="namedview5"
   pagecolor="#ffffff"
   bordercolor="#000000"
   borderopacity="0.25"
   inkscape:showpageshadow="2"
   inkscape:pageopacity="0.0"
   inkscape:pagecheckerboard="0"
   inkscape:deskcolor="#d1d1d1"
   showgrid="false"
   inkscape:zoom="32.09375"
   inkscape:cx="7.5559883"
   inkscape:cy="15.454722"
   inkscape:window-width="2560"
   inkscape:window-height="1371"
   inkscape:window-x="0"
   inkscape:window-y="32"
   inkscape:window-maximized="1"
   inkscape:current-layer="Icons" />
<path
   d="M24.6,11.5c-0.3-0.5-0.9-0.6-1.4-0.3c-0.5,0.3-0.6,0.9-0.3,1.4c0.7,1,1,2.2,1,3.4c0,3.3-2.7,6-6,6h-4c-3.3,0-6-2.7-6-6  s2.7-6,6-6h3v1.4c0,0.4,0.2,0.7,0.6,0.9c0.1,0.1,0.3,0.1,0.4,0.1c0.2,0,0.4-0.1,0.6-0.2l3-2.4C21.9,9.6,22,9.3,22,9  s-0.1-0.6-0.4-0.8l-3-2.4c-0.3-0.2-0.7-0.3-1.1-0.1C17.2,5.9,17,6.2,17,6.6V8h-3c-4.4,0-8,3.6-8,8s3.6,8,8,8h4c4.4,0,8-3.6,8-8  C26,14.4,25.5,12.8,24.6,11.5z"
   id="path2"
   style="fill:#ffffff;fill-opacity:1" />
<circle
   style="fill:#ffffff;fill-opacity:1"
   id="use1107"
   cx="16"
   cy="16"
   r="1.2684729" /></svg>
