<?xml version="1.0" encoding="UTF-8" standalone="no"?>
<!-- Generator: Adobe Illustrator 16.0.0, SVG Export Plug-In . SVG Version: 6.00 Build 0)  -->

<svg
   version="1.1"
   id="Capa_1"
   x="0px"
   y="0px"
   width="92.833px"
   height="92.833px"
   viewBox="0 0 92.833 92.833"
   style="enable-background:new 0 0 92.833 92.833;"
   xml:space="preserve"
   sodipodi:docname="menu.svg"
   inkscape:version="1.2.2 (b0a8486541, 2022-12-01)"
   xmlns:inkscape="http://www.inkscape.org/namespaces/inkscape"
   xmlns:sodipodi="http://sodipodi.sourceforge.net/DTD/sodipodi-0.dtd"
   xmlns="http://www.w3.org/2000/svg"
   xmlns:svg="http://www.w3.org/2000/svg"><defs
   id="defs45" /><sodipodi:namedview
   id="namedview43"
   pagecolor="#ffffff"
   bordercolor="#000000"
   borderopacity="0.25"
   inkscape:showpageshadow="2"
   inkscape:pageopacity="0.0"
   inkscape:pagecheckerboard="0"
   inkscape:deskcolor="#d1d1d1"
   showgrid="false"
   inkscape:zoom="11.062876"
   inkscape:cx="30.9594"
   inkscape:cy="46.371305"
   inkscape:window-width="2560"
   inkscape:window-height="1371"
   inkscape:window-x="0"
   inkscape:window-y="32"
   inkscape:window-maximized="1"
   inkscape:current-layer="Capa_1" />
<g
   id="g10"
   style="fill:#ffffff;fill-opacity:1;stroke:none;stroke-opacity:1"
   transform="matrix(0.53909838,0,0,0.53909838,21.39344,21.393171)">
	<g
   id="g8"
   style="fill:#ffffff;fill-opacity:1;stroke:none;stroke-opacity:1">
		<path
   d="M 89.834,1.75 H 3 c -1.654,0 -3,1.346 -3,3 v 13.334 c 0,1.654 1.346,3 3,3 h 86.833 c 1.653,0 3,-1.346 3,-3 V 4.75 c 0.001,-1.654 -1.345,-3 -2.999,-3 z"
   id="path2"
   style="fill:#ffffff;fill-opacity:1;stroke:none;stroke-opacity:1" />
		<path
   d="M 89.834,36.75 H 3 c -1.654,0 -3,1.346 -3,3 v 13.334 c 0,1.654 1.346,3 3,3 h 86.833 c 1.653,0 3,-1.346 3,-3 V 39.75 c 0.001,-1.654 -1.345,-3 -2.999,-3 z"
   id="path4"
   style="fill:#ffffff;fill-opacity:1;stroke:none;stroke-opacity:1" />
		<path
   d="M 89.834,71.75 H 3 c -1.654,0 -3,1.346 -3,3 v 13.334 c 0,1.654 1.346,3 3,3 h 86.833 c 1.653,0 3,-1.346 3,-3 V 74.75 c 0.001,-1.655 -1.345,-3 -2.999,-3 z"
   id="path6"
   style="fill:#ffffff;fill-opacity:1;stroke:none;stroke-opacity:1" />
	</g>
</g>
<g
   id="g12">
</g>
<g
   id="g14">
</g>
<g
   id="g16">
</g>
<g
   id="g18">
</g>
<g
   id="g20">
</g>
<g
   id="g22">
</g>
<g
   id="g24">
</g>
<g
   id="g26">
</g>
<g
   id="g28">
</g>
<g
   id="g30">
</g>
<g
   id="g32">
</g>
<g
   id="g34">
</g>
<g
   id="g36">
</g>
<g
   id="g38">
</g>
<g
   id="g40">
</g>
</svg>
