<?xml version="1.0" encoding="UTF-8" standalone="no"?>
<svg
   width="30"
   height="30"
   viewBox="0 0 30 30"
   version="1.1"
   id="svg822"
   inkscape:version="1.2.2 (b0a8486541, 2022-12-01)"
   sodipodi:docname="queue.svg"
   xmlns:inkscape="http://www.inkscape.org/namespaces/inkscape"
   xmlns:sodipodi="http://sodipodi.sourceforge.net/DTD/sodipodi-0.dtd"
   xmlns="http://www.w3.org/2000/svg"
   xmlns:svg="http://www.w3.org/2000/svg"
   xmlns:rdf="http://www.w3.org/1999/02/22-rdf-syntax-ns#"
   xmlns:cc="http://creativecommons.org/ns#"
   xmlns:dc="http://purl.org/dc/elements/1.1/">
  <defs
     id="defs816" />
  <sodipodi:namedview
     id="base"
     pagecolor="#ffffff"
     bordercolor="#666666"
     borderopacity="1.0"
     inkscape:pageopacity="0.0"
     inkscape:pageshadow="2"
     inkscape:zoom="25.220142"
     inkscape:cx="12.787398"
     inkscape:cy="22.402729"
     inkscape:document-units="px"
     inkscape:current-layer="layer1"
     showgrid="true"
     units="px"
     inkscape:window-width="2560"
     inkscape:window-height="1371"
     inkscape:window-x="0"
     inkscape:window-y="32"
     inkscape:window-maximized="1"
     showguides="false"
     inkscape:showpageshadow="2"
     inkscape:pagecheckerboard="0"
     inkscape:deskcolor="#d1d1d1">
    <inkscape:grid
       type="xygrid"
       id="grid816" />
  </sodipodi:namedview>
  <metadata
     id="metadata819">
    <rdf:RDF>
      <cc:Work
         rdf:about="">
        <dc:format>image/svg+xml</dc:format>
        <dc:type
           rdf:resource="http://purl.org/dc/dcmitype/StillImage" />
        <dc:title />
      </cc:Work>
    </rdf:RDF>
  </metadata>
  <g
     inkscape:label="Layer 1"
     inkscape:groupmode="layer"
     id="layer1"
     transform="translate(0,-289.0625)">
    <path
       style="opacity:1;fill:#ffffff;fill-opacity:1;stroke:none;stroke-width:2;stroke-miterlimit:4;stroke-dasharray:none;stroke-opacity:1"
       d="m 4.0498047,293.11036 c -0.554,0 -1,0.446 -1,1 0,0.554 0.446,1 1,1 H 19.049804 c 0.554,0 1,-0.446 1,-1 0,-0.554 -0.446,-1 -1,-1 z m 0,7 c -0.554,0 -1,0.446 -1,1 0,0.554 0.446,1 1,1 H 22.049804 c 0.554,0 1,-0.446 1,-1 0,-0.554 -0.446,-1 -1,-1 z m 17.9492183,5.00391 c -0.342752,0 -0.677013,0.0335 -1,0.0996 v 3.85156 h -3.849609 c -0.06609,0.32304 -0.09961,0.65725 -0.09961,1 0,0.34275 0.03352,0.67701 0.09961,1 h 3.849609 v 3.84961 c 0.322987,0.0661 0.657248,0.0996 1,0.0996 0.342751,0 0.676959,-0.0335 1,-0.0996 v -3.84961 h 3.851562 c 0.06614,-0.32299 0.09961,-0.65725 0.09961,-1 0,-0.34275 -0.03347,-0.67696 -0.09961,-1 h -3.851562 v -3.85156 c -0.323041,-0.0661 -0.657249,-0.0996 -1,-0.0996 z m -17.9492183,1.99609 c -0.554,0 -1,0.446 -1,1 0,0.554 0.4460001,1 1,1 H 14.049805 c 0.554,0 1,-0.446 1,-1 0,-0.554 -0.446,-1 -1,-1 z"
       id="rect887" />
  </g>
</svg>
